<svg width="56" height="40" viewBox="0 0 56 40" fill="none" xmlns="http://www.w3.org/2000/svg">
<rect width="56" height="40" rx="8" fill="url(#paint0_linear_6336_7838)"/>
<path opacity="0.2" d="M5 6.5C5 5.67157 5.67157 5 6.5 5H17.5C18.3284 5 19 5.67157 19 6.5C19 7.32843 18.3284 8 17.5 8H6.5C5.67157 8 5 7.32843 5 6.5Z" fill="white"/>
<g clip-path="url(#clip0_6336_7838)">
<path d="M41.6924 27C42.5657 27 43.3678 27.3037 44 27.8105C43.1561 28.4872 42.6152 29.5265 42.6152 30.6924C42.6153 31.858 43.1563 32.8966 44 33.5732C43.3678 34.0803 42.5659 34.3847 41.6924 34.3848C39.6532 34.3848 38 32.7316 38 30.6924C38 28.6532 39.6532 27 41.6924 27Z" fill="#EB001B"/>
<path d="M46.3076 27C48.3468 27 50 28.6532 50 30.6924C50 32.7316 48.3468 34.3848 46.3076 34.3848C45.4341 34.3847 44.6322 34.0803 44 33.5732C44.8437 32.8966 45.3847 31.858 45.3848 30.6924C45.3848 29.5265 44.8439 28.4872 44 27.8105C44.6322 27.3037 45.4343 27 46.3076 27Z" fill="#F79E1B"/>
<path d="M44.002 27.8105C44.8456 28.4871 45.3866 29.5259 45.3867 30.6914C45.3867 31.8569 44.8454 32.8956 44.002 33.5723C43.1584 32.8956 42.6172 31.857 42.6172 30.6914C42.6173 29.5258 43.1582 28.4871 44.002 27.8105Z" fill="#FF5F00"/>
</g>
<path d="M22.7168 18.9922C22.4336 18.9922 22.209 18.7578 22.209 18.4648C22.209 18.1621 22.4336 17.9375 22.7168 17.9375H29.377C29.9434 17.6641 30.1973 17.1074 30.1973 16.5605C30.1973 15.4082 29.1523 14.8125 27.9219 14.8125C26.9551 14.8125 26.1641 15.1641 25.6758 15.9746C25.3828 16.4238 25.0703 16.5801 24.6309 16.5801C24.0156 16.5801 23.6055 16.1699 23.6055 15.623C23.6055 15.2715 23.7129 14.9688 23.9082 14.666C24.709 13.2891 26.3203 12.8008 27.9316 12.8008C30.4902 12.8008 32.5996 14.0996 32.5996 16.375C32.5996 16.9414 32.375 17.498 31.9648 17.9375H33.2637C33.5664 17.9375 33.7812 18.1621 33.7812 18.4648C33.7812 18.7578 33.5664 18.9922 33.2637 18.9922H22.7168ZM22.7168 21.6094C22.4336 21.6094 22.209 21.375 22.209 21.082C22.209 20.7793 22.4336 20.5645 22.7168 20.5645H33.2637C33.5664 20.5645 33.7812 20.7793 33.7812 21.082C33.7812 21.375 33.5664 21.6094 33.2637 21.6094H26.6426C25.9102 21.9902 25.6367 22.6055 25.6367 23.2598C25.6367 24.2461 26.584 25.0176 28.0488 25.0176C29.2598 25.0176 29.9922 24.6074 30.5391 23.6992C30.8027 23.3184 31.0859 23.084 31.623 23.084C32.1992 23.084 32.6484 23.4844 32.6484 24.0508C32.6484 24.4219 32.5312 24.7148 32.3457 25.0078C31.5742 26.375 29.9336 27.0293 28.0195 27.0293C25.1289 27.0293 23.2246 25.457 23.2246 23.416C23.2246 22.7617 23.498 22.0977 24.0059 21.6094H22.7168Z" fill="white"/>
<defs>
<linearGradient id="paint0_linear_6336_7838" x1="28" y1="0" x2="28" y2="40" gradientUnits="userSpaceOnUse">
<stop stop-color="#2B2B2B"/>
<stop offset="1" stop-color="#0E0E0E"/>
</linearGradient>
<clipPath id="clip0_6336_7838">
<rect width="12" height="7.38462" fill="white" transform="translate(38 27)"/>
</clipPath>
</defs>
</svg>
